<?xml version="1.0" encoding="UTF-8"?>
<svg xmlns="http://www.w3.org/2000/svg" xmlns:xlink="http://www.w3.org/1999/xlink" width="2095" height="2095" viewBox="0 0 2095 2095">
<path fill-rule="nonzero" fill="white" fill-opacity="1" d="M 549.0625 1102.597656 C 548.519531 1102.597656 548.128906 1102.734375 547.867188 1102.996094 L 547.867188 1103 C 545.894531 1104.964844 551.257812 1113.835938 560.394531 1122.992188 C 560.410156 1123.007812 560.484375 1123.082031 560.5 1123.097656 C 568.324219 1130.921875 576.085938 1136.125 579.410156 1136.125 C 579.949219 1136.125 580.34375 1135.988281 580.601562 1135.730469 C 582.578125 1133.746094 577.164062 1124.816406 567.972656 1115.621094 C 560.148438 1107.804688 552.386719 1102.597656 549.0625 1102.597656 Z M 507.050781 1102.59375 C 503.722656 1102.59375 495.960938 1107.804688 488.140625 1115.625 C 478.945312 1124.816406 473.535156 1133.75 475.507812 1135.726562 L 475.511719 1135.730469 L 475.511719 1135.734375 C 475.773438 1135.988281 476.167969 1136.128906 476.707031 1136.128906 C 480.035156 1136.125 487.792969 1130.921875 495.609375 1123.09375 L 495.613281 1123.09375 C 504.808594 1113.902344 510.21875 1104.96875 508.246094 1102.992188 C 507.984375 1102.730469 507.589844 1102.59375 507.050781 1102.59375 Z M 530.164062 1137.109375 C 538.3125 1137.109375 544.917969 1143.714844 544.917969 1151.863281 C 544.917969 1160.011719 538.3125 1166.617188 530.164062 1166.617188 C 522.015625 1166.617188 515.414062 1160.011719 515.414062 1151.863281 C 515.414062 1143.714844 522.015625 1137.109375 530.164062 1137.109375 Z M 580.601562 1171.675781 L 580.601562 1171.679688 Z M 529.804688 1130.082031 C 517.574219 1130.082031 507.664062 1139.996094 507.664062 1152.222656 C 507.664062 1164.453125 517.578125 1174.367188 529.804688 1174.367188 C 542.03125 1174.367188 551.945312 1164.449219 551.945312 1152.222656 C 551.945312 1139.996094 542.03125 1130.082031 529.804688 1130.082031 Z M 476.699219 1171.269531 C 476.160156 1171.269531 475.769531 1171.410156 475.507812 1171.667969 C 473.53125 1173.648438 478.945312 1182.578125 488.140625 1191.777344 C 495.960938 1199.59375 503.726562 1204.804688 507.050781 1204.804688 C 507.59375 1204.804688 507.988281 1204.667969 508.246094 1204.40625 C 510.222656 1202.425781 504.808594 1193.496094 495.613281 1184.300781 C 487.792969 1176.480469 480.027344 1171.269531 476.699219 1171.269531 Z M 579.410156 1171.277344 C 576.082031 1171.277344 568.320312 1176.484375 560.5 1184.308594 C 551.304688 1193.5 545.890625 1202.433594 547.863281 1204.40625 L 547.867188 1204.410156 C 548.128906 1204.671875 548.519531 1204.808594 549.058594 1204.808594 C 552.386719 1204.808594 560.148438 1199.601562 567.972656 1191.78125 C 577.160156 1182.585938 582.574219 1173.65625 580.605469 1171.679688 L 580.601562 1171.679688 C 580.34375 1171.417969 579.949219 1171.277344 579.410156 1171.277344 Z M 529.808594 1079.691406 C 569.867188 1079.691406 602.335938 1112.167969 602.335938 1152.222656 C 602.335938 1192.28125 569.863281 1224.753906 529.804688 1224.757812 C 489.742188 1224.757812 457.273438 1192.28125 457.273438 1152.222656 C 457.273438 1112.171875 489.746094 1079.691406 529.804688 1079.691406 Z M 529.804688 1030.28125 C 462.453125 1030.28125 407.855469 1084.871094 407.855469 1152.226562 C 407.855469 1219.570312 462.445312 1274.171875 529.804688 1274.171875 C 597.148438 1274.171875 651.75 1219.574219 651.75 1152.226562 C 651.75 1084.871094 597.152344 1030.28125 529.804688 1030.28125 Z M 529.804688 1030.28125 "/>
<path fill-rule="nonzero" fill="white" fill-opacity="1" d="M 1647.789062 1102.597656 C 1647.25 1102.597656 1646.859375 1102.734375 1646.601562 1102.996094 L 1646.601562 1103 C 1644.628906 1104.964844 1649.988281 1113.835938 1659.128906 1122.992188 C 1659.140625 1123.007812 1659.21875 1123.082031 1659.230469 1123.097656 C 1667.058594 1130.921875 1674.820312 1136.125 1678.140625 1136.125 C 1678.679688 1136.125 1679.070312 1135.988281 1679.339844 1135.730469 C 1681.308594 1133.746094 1675.890625 1124.816406 1666.710938 1115.621094 C 1658.878906 1107.804688 1651.121094 1102.597656 1647.789062 1102.597656 Z M 1605.78125 1102.59375 C 1602.449219 1102.59375 1594.691406 1107.804688 1586.871094 1115.625 C 1577.679688 1124.816406 1572.269531 1133.75 1574.238281 1135.726562 L 1574.238281 1135.734375 C 1574.5 1135.988281 1574.898438 1136.128906 1575.441406 1136.128906 C 1578.769531 1136.125 1586.53125 1130.921875 1594.339844 1123.09375 C 1603.539062 1113.902344 1608.949219 1104.96875 1606.980469 1102.992188 C 1606.710938 1102.730469 1606.320312 1102.59375 1605.78125 1102.59375 Z M 1628.898438 1137.109375 C 1637.050781 1137.109375 1643.648438 1143.714844 1643.648438 1151.863281 C 1643.648438 1160.011719 1637.050781 1166.617188 1628.898438 1166.617188 C 1620.75 1166.617188 1614.140625 1160.011719 1614.140625 1151.863281 C 1614.140625 1143.714844 1620.75 1137.109375 1628.898438 1137.109375 Z M 1679.339844 1171.675781 L 1679.339844 1171.679688 Z M 1628.539062 1130.082031 C 1616.308594 1130.082031 1606.390625 1139.996094 1606.390625 1152.222656 C 1606.390625 1164.453125 1616.308594 1174.367188 1628.539062 1174.367188 C 1640.769531 1174.367188 1650.679688 1164.449219 1650.679688 1152.222656 C 1650.679688 1139.996094 1640.769531 1130.082031 1628.539062 1130.082031 Z M 1575.429688 1171.269531 C 1574.890625 1171.269531 1574.5 1171.410156 1574.238281 1171.667969 C 1572.261719 1173.648438 1577.679688 1182.578125 1586.871094 1191.777344 C 1594.691406 1199.59375 1602.460938 1204.804688 1605.789062 1204.804688 C 1606.320312 1204.804688 1606.71875 1204.667969 1606.980469 1204.40625 C 1608.949219 1202.425781 1603.539062 1193.496094 1594.351562 1184.300781 C 1586.519531 1176.480469 1578.761719 1171.269531 1575.429688 1171.269531 Z M 1678.140625 1171.277344 C 1674.808594 1171.277344 1667.058594 1176.484375 1659.230469 1184.308594 C 1650.039062 1193.5 1644.621094 1202.433594 1646.589844 1204.40625 L 1646.601562 1204.410156 C 1646.859375 1204.671875 1647.25 1204.808594 1647.789062 1204.808594 C 1651.121094 1204.808594 1658.878906 1199.601562 1666.710938 1191.78125 C 1675.890625 1182.585938 1681.308594 1173.65625 1679.339844 1171.679688 C 1679.070312 1171.417969 1678.679688 1171.277344 1678.140625 1171.277344 Z M 1628.539062 1079.691406 C 1668.601562 1079.691406 1701.070312 1112.167969 1701.070312 1152.222656 C 1701.070312 1192.28125 1668.589844 1224.753906 1628.539062 1224.757812 C 1588.480469 1224.757812 1556 1192.28125 1556 1152.222656 C 1556 1112.171875 1588.480469 1079.691406 1628.539062 1079.691406 Z M 1628.539062 1030.28125 C 1561.179688 1030.28125 1506.589844 1084.871094 1506.589844 1152.226562 C 1506.589844 1219.570312 1561.179688 1274.171875 1628.539062 1274.171875 C 1695.878906 1274.171875 1750.480469 1219.574219 1750.480469 1152.226562 C 1750.480469 1084.871094 1695.890625 1030.28125 1628.539062 1030.28125 Z M 1628.539062 1030.28125 "/>
<path fill-rule="nonzero" fill="white" fill-opacity="1" d="M 1089.488281 839.730469 C 1109.351562 839.738281 1126.898438 840.421875 1142.148438 841.78125 L 1167.128906 844.21875 C 1183.898438 846.140625 1200.871094 848.558594 1218.03125 851.449219 C 1260.839844 858.449219 1322.289062 871.980469 1402.378906 892.03125 L 1334.210938 949.820312 L 1334.148438 949.820312 C 1180.460938 949.820312 1026.769531 949.820312 873.074219 949.820312 L 869.21875 913.980469 C 858.144531 914.308594 849.605469 915.03125 843.597656 916.140625 C 839.007812 916.71875 833.921875 918.601562 828.347656 921.78125 C 823.855469 924.449219 820.488281 928.261719 818.242188 933.199219 C 816.890625 937.078125 816.953125 941.648438 818.429688 946.890625 L 817.945312 947.480469 C 811.941406 942.578125 805.941406 937.691406 799.941406 932.789062 L 799.867188 932.789062 C 832.273438 914.78125 856.988281 901.859375 874.015625 894.058594 C 889.570312 886.621094 905.359375 879.75 921.375 873.460938 L 945.628906 864.578125 C 961.933594 858.988281 978.582031 854.261719 995.578125 850.378906 L 1021.390625 845.339844 C 1043.890625 841.691406 1066.589844 839.820312 1089.488281 839.730469 Z M 1286.070312 976.011719 C 1296.558594 976.050781 1305.289062 976.601562 1312.25 977.640625 C 1319.210938 978.691406 1322.828125 980.011719 1323.089844 981.589844 L 1322.75 982.351562 C 1321.148438 983.871094 1316.460938 985.089844 1308.691406 986.011719 C 1302.109375 986.78125 1294.550781 987.160156 1286 987.160156 C 1284.378906 987.160156 1282.730469 987.148438 1281.050781 987.121094 C 1270.929688 986.878906 1262.839844 986.171875 1256.769531 985 C 1254.820312 984.621094 1253.21875 984.210938 1251.960938 983.769531 L 1250.378906 983.070312 C 1249.5 982.601562 1249.058594 982.109375 1249.058594 981.589844 C 1249.320312 980.011719 1252.929688 978.691406 1259.890625 977.640625 C 1266.859375 976.601562 1275.589844 976.050781 1286.070312 976.011719 Z M 1898 992.859375 L 1896.949219 1022.191406 C 1890.628906 1021.050781 1883.839844 1019.828125 1876.609375 1018.53125 C 1865.320312 1016.5 1852.160156 1014.140625 1837.140625 1011.441406 L 1837.199219 1011.429688 C 1836.089844 1011.371094 1835.101562 1010.679688 1834.671875 1009.640625 C 1834.21875 1008.558594 1834.460938 1007.308594 1835.289062 1006.480469 C 1840.378906 1001.339844 1844.109375 997.589844 1846.460938 995.21875 L 1846.519531 995.21875 C 1847.019531 994.378906 1847.929688 993.808594 1848.980469 993.789062 L 1879.378906 993.210938 Z M 351.339844 999.078125 C 354.582031 999.078125 357.625 999.289062 360.476562 999.710938 L 360.554688 999.730469 C 365.097656 1000.25 370.789062 1001.609375 377.625 1003.808594 C 378.589844 1004.121094 379.183594 1005.089844 379.027344 1006.089844 C 378.878906 1007.019531 378.113281 1007.730469 377.183594 1007.820312 L 377.242188 1007.828125 C 363.230469 1012.269531 352.652344 1016.28125 345.507812 1019.871094 L 345.332031 1019.960938 C 338.558594 1023.328125 334.429688 1025.488281 332.945312 1026.449219 C 332.808594 1026.539062 332.660156 1026.609375 332.503906 1026.671875 L 332.574219 1026.679688 C 318.664062 1034.929688 309.917969 1039.980469 306.332031 1041.839844 L 306.265625 1041.839844 L 305.960938 1042.03125 C 298.269531 1045.921875 293.539062 1048.140625 291.757812 1048.691406 L 291.496094 1048.789062 C 283.15625 1052.359375 272.972656 1054.359375 260.945312 1054.789062 L 260.882812 1054.789062 C 260.042969 1054.808594 259.1875 1054.808594 258.320312 1054.808594 C 249.371094 1054.808594 238.84375 1053.929688 226.738281 1052.160156 L 226.660156 1052.160156 C 252.382812 1036.789062 277.285156 1023.171875 301.375 1011.320312 L 301.296875 1011.320312 C 305.042969 1009.769531 308.269531 1008.539062 310.96875 1007.640625 L 311.015625 1007.621094 C 321.09375 1003.808594 330.292969 1001.28125 338.601562 1000.03125 L 338.679688 1000.03125 C 338.757812 1000.011719 338.839844 1000 338.921875 999.980469 C 343.335938 999.378906 347.476562 999.078125 351.339844 999.078125 Z M 1857.390625 1145.691406 L 1857.320312 1145.695312 L 1857.320312 1145.691406 Z M 1857.390625 1145.691406 L 1853.570312 1174.015625 L 1853.511719 1174.011719 C 1844.96875 1176.777344 1836.429688 1179.539062 1827.890625 1182.300781 C 1830.589844 1174.523438 1833.308594 1166.742188 1836.011719 1158.960938 C 1843.121094 1154.539062 1850.21875 1150.113281 1857.320312 1145.691406 Z M 201.945312 1117.628906 C 205.550781 1117.933594 209.160156 1118.238281 212.765625 1118.539062 C 220.804688 1143.195312 228.847656 1167.851562 236.886719 1192.503906 L 205.910156 1191.945312 L 205.832031 1191.941406 C 205.96875 1191.757812 206.039062 1191.527344 206.023438 1191.292969 L 201.863281 1117.628906 Z M 1102.921875 820.121094 C 1042.738281 820.121094 980.726562 831.121094 916.878906 853.121094 L 916.863281 853.128906 C 865.175781 870.578125 797.371094 902.988281 713.457031 950.378906 C 713.304688 950.460938 713.140625 950.511719 712.96875 950.511719 L 712.957031 950.511719 C 712.9375 950.511719 712.9375 950.511719 712.910156 950.5 L 712.910156 950.511719 C 667.148438 947.859375 625.824219 946.53125 588.929688 946.53125 C 511.804688 946.53125 454.074219 952.320312 415.742188 963.890625 L 415.738281 963.890625 L 415.640625 963.921875 L 415.636719 963.929688 C 356.363281 979.929688 290.71875 1009.648438 218.707031 1053.089844 C 216.886719 1054.179688 215.933594 1056.261719 216.242188 1058.320312 L 216.164062 1058.320312 L 214.554688 1074.609375 C 214.503906 1075.089844 214.113281 1075.460938 213.632812 1075.5 C 207.582031 1075.910156 203.421875 1078.128906 201.15625 1082.148438 C 200.742188 1082.890625 200.519531 1083.699219 200.492188 1084.519531 L 200.410156 1084.519531 L 193.589844 1108.3125 C 192.992188 1110.394531 193.746094 1112.632812 195.484375 1113.925781 L 199.378906 1116.828125 C 199.613281 1117.003906 199.757812 1117.273438 199.777344 1117.570312 L 203.949219 1191.484375 L 203.949219 1191.488281 C 203.964844 1191.753906 203.875 1192.015625 203.691406 1192.214844 C 203.507812 1192.414062 203.25 1192.527344 202.984375 1192.535156 L 189.546875 1192.878906 C 186.695312 1192.953125 184.433594 1195.304688 184.46875 1198.15625 C 184.484375 1199.332031 184.890625 1200.410156 185.558594 1201.277344 L 185.480469 1201.277344 C 188.4375 1207.433594 194.375 1213.078125 203.296875 1218.207031 C 203.554688 1218.355469 203.824219 1218.480469 204.101562 1218.585938 L 204.023438 1218.585938 C 218.84375 1226.1875 245.324219 1235.398438 283.464844 1246.222656 C 283.929688 1246.355469 284.40625 1246.421875 284.886719 1246.421875 C 320.8125 1246.421875 356.734375 1246.421875 392.65625 1246.421875 L 392.734375 1246.425781 C 392.734375 1208.714844 392.734375 1169.605469 392.734375 1151.863281 C 392.734375 1075.96875 454.246094 1014.429688 530.152344 1014.429688 L 530.164062 1014.441406 L 530.164062 1014.429688 C 606.070312 1014.429688 667.597656 1075.960938 667.597656 1151.867188 C 667.597656 1169.605469 667.597656 1208.714844 667.597656 1246.421875 L 683.335938 1246.421875 C 683.976562 1246.421875 684.613281 1246.300781 685.210938 1246.070312 L 779.074219 1209.90625 C 779.179688 1209.863281 779.292969 1209.839844 779.410156 1209.839844 L 779.445312 1209.84375 L 1220.410156 1215.839844 L 1220.410156 1215.84375 C 1220.480469 1215.839844 1220.550781 1215.847656 1220.609375 1215.863281 L 1359.75 1246.296875 C 1360.121094 1246.378906 1360.488281 1246.417969 1360.859375 1246.417969 C 1404.378906 1246.417969 1447.890625 1246.417969 1491.398438 1246.417969 L 1491.460938 1246.421875 C 1491.460938 1208.714844 1491.460938 1169.601562 1491.460938 1151.863281 C 1491.460938 1075.96875 1552.980469 1014.429688 1628.890625 1014.429688 L 1628.898438 1014.441406 L 1628.898438 1014.429688 C 1704.808594 1014.429688 1766.328125 1075.960938 1766.328125 1151.867188 C 1766.328125 1165.679688 1766.328125 1192.449219 1766.328125 1221.425781 L 1852.511719 1177.769531 C 1854.039062 1176.992188 1855.089844 1175.515625 1855.320312 1173.816406 L 1859.308594 1144.136719 C 1859.328125 1144.007812 1859.378906 1143.871094 1859.441406 1143.757812 L 1897.449219 1080.039062 C 1897.898438 1079.289062 1898.148438 1078.429688 1898.179688 1077.558594 L 1901.269531 991.609375 L 1901.199219 991.609375 C 1901.648438 989.890625 1901.199219 988.050781 1899.96875 986.730469 C 1883.449219 969.078125 1868.96875 957.871094 1856.539062 953.109375 C 1856.488281 953.089844 1856.421875 953.058594 1856.371094 953.019531 C 1854.449219 951.808594 1852.199219 950.621094 1849.621094 949.441406 L 1849.558594 949.449219 L 1868.019531 919.621094 L 1909.859375 921.808594 C 1907.589844 910.269531 1905.328125 898.730469 1903.058594 887.191406 C 1875.878906 892.550781 1848.691406 897.910156 1821.519531 903.261719 L 1815.488281 909.910156 L 1809.46875 916.558594 L 1847 918.519531 L 1846.929688 918.519531 C 1839.578125 926.109375 1832.230469 933.691406 1824.878906 941.269531 C 1780.679688 930.03125 1699.71875 921.230469 1582 914.851562 L 1581.988281 914.851562 C 1581.929688 914.851562 1581.851562 914.839844 1581.78125 914.808594 C 1414.558594 867.398438 1305.761719 840.519531 1255.398438 834.179688 L 1255.390625 834.179688 L 1255.089844 834.128906 L 1255.109375 834.140625 C 1203.289062 825.101562 1153.980469 820.429688 1107.191406 820.140625 L 1107.148438 820.140625 C 1105.738281 820.121094 1104.328125 820.121094 1102.921875 820.121094 Z M 1102.921875 820.121094 "/>
</svg>
